<svg width="37" height="40" viewBox="0 0 37 40" fill="none" xmlns="http://www.w3.org/2000/svg">
<path d="M20.4614 36.5751L18.9549 35.8947L25.1642 10.9812L35.5617 20.4157L20.4614 36.5751Z" fill="white" fill-opacity="0.22"/>
<path d="M36.1818 0C36.1748 13.516 36.1622 20.3234 36.1441 20.4223C36.1221 20.5658 36.0538 20.7025 35.9457 20.8191L18.0886 40L0.216311 20.8191C0.108238 20.7025 0.0399322 20.5658 0.0179536 20.4223C0.00424855 20.3024 -0.0016101 20.2303 0.000377685 20.2061V0L11.2992 10.0931L24.9331 10.0753L36.1818 0ZM20.2102 36.3774L35.0594 20.4164L25.1641 11.3786L19.457 35.6969L20.2102 36.3774ZM15.9694 36.3774L16.7176 35.7049L11.0105 11.3845L1.1152 20.4223L15.9694 36.3774Z" fill="#633BBC"/>
<path d="M29.1764 20.8033L24.1647 25.356L23.3612 22.5629L29.1764 20.8033Z" fill="#633BBC"/>
</svg>
